<?xml version="1.0" standalone="no"?><!DOCTYPE svg PUBLIC "-//W3C//DTD SVG 1.1//EN" "http://www.w3.org/Graphics/SVG/1.1/DTD/svg11.dtd"><svg t="1569745509835" class="icon" viewBox="0 0 1024 1024" version="1.1" xmlns="http://www.w3.org/2000/svg" p-id="1231" xmlns:xlink="http://www.w3.org/1999/xlink" width="200" height="200"><defs><style type="text/css"></style></defs><path d="M437 714.1h113v136.6H437z" fill="#FDCC9B" p-id="1232"></path><path d="M437 730.3s47.7 32.9 113 25v-41.2H437v16.2z m0 0" fill="#E8A16B" p-id="1233"></path><path d="M218.9 502.5c0 37.6 24.7 68.1 55.1 68.1 30.4 0 55.1-30.5 55.1-68.1 0-37.6-24.7-68.1-55.1-68.1-30.4 0.1-55.1 30.5-55.1 68.1z m0 0M657.8 502.5c0 37.6 24.7 68.1 55.1 68.1s55.1-30.5 55.1-68.1c0-37.6-24.7-68.1-55.1-68.1s-55.1 30.5-55.1 68.1z m0 0" fill="#FFCFAE" p-id="1234"></path><path d="M682.8 502.5c0 20.5 13.5 37 30.1 37s30.1-16.6 30.1-37c0-13.2-5.7-25.5-15-32.1-9.3-6.6-20.8-6.6-30.1 0-9.3 6.7-15.1 18.9-15.1 32.1z m0 0M243.9 502.5c0 13.2 5.7 25.5 15 32.1 9.3 6.6 20.8 6.6 30.1 0s15-18.8 15-32.1c0-20.5-13.5-37-30.1-37-16.5 0-30 16.6-30 37z m0 0" fill="#EDAF85" p-id="1235"></path><path d="M712.9 372.9c0-100-67.6-173.2-219.4-173.2-151.4 0-219.5 73.2-219.5 173.2 0 100-15.7 363.4 219.5 363.4s219.4-263.4 219.4-363.4z m0 0" fill="#FFCFAE" p-id="1236"></path><path d="M362.9 486.3c0 10.1 4.5 19.4 11.8 24.5 7.3 5 16.3 5 23.6 0 7.3-5 11.8-14.4 11.8-24.5s-4.5-19.4-11.8-24.5c-7.3-5-16.3-5-23.6 0-7.3 5.1-11.8 14.4-11.8 24.5z m0 0" fill="#3B2519" p-id="1237"></path><path d="M369.4 473.8c0 4.3 3.1 7.9 6.9 7.9 3.8 0 6.9-3.5 6.9-7.9 0-4.3-3.1-7.9-6.9-7.9-3.8 0.1-6.9 3.6-6.9 7.9z m0 0" fill="#FFFFFF" p-id="1238"></path><path d="M348.6 416.4c11.6 6.5 29.2-20.4 70.8 2.8 7.4 4.2 12-36.1-32.4-36.1-38.4 0-44.9 30.1-38.4 33.3z m0 0" fill="#36221E" p-id="1239"></path><path d="M579.6 486.3c0 15.6 10.6 28.2 23.6 28.2 13 0 23.6-12.6 23.6-28.2s-10.6-28.2-23.6-28.2c-13 0-23.6 12.6-23.6 28.2z m0 0" fill="#3B2519" p-id="1240"></path><path d="M586.1 473.8c0 4.3 3.1 7.9 6.9 7.9 3.8 0 6.9-3.5 6.9-7.9 0-4.3-3.1-7.9-6.9-7.9-3.8 0.1-6.9 3.6-6.9 7.9z m0 0" fill="#FFFFFF" p-id="1241"></path><path d="M638.4 416.4c-11.1 6-29.2-20.4-70.4 2.8-7.4 4.2-12-36.1 32.4-36.1 38 0 44.5 30.1 38 33.3z m0 0" fill="#36221E" p-id="1242"></path><path d="M493.5 584.9c-23.6 0-37.5-19-37.5-9.7s6.9 26.4 37.5 26.4c31 0 37.5-17.6 37.5-26.4 0-8.8-13.9 9.7-37.5 9.7z m0 0" fill="#EFAC7B" p-id="1243"></path><path d="M493.5 669.2c-8.3 0-13-6.5-13-3.2 0 3.2 2.3 9.3 13 9.3 10.6 0 13-6 13-9.3-0.1-3.3-4.7 3.2-13 3.2z m0 0" fill="#FCBC85" p-id="1244"></path><path d="M493.5 645.6c-37 0-59.7-16.2-59.7-12 0 4.2 10.6 20.4 59.7 20.4 48.6 0 59.7-16.2 59.7-20.4 0-4.2-22.7 12-59.7 12z m0 0" fill="#F7945E" p-id="1245"></path><path d="M493.5 769.2c-130.1 0-274.5 91.7-274.5 153.7h549c0-62-144.4-153.7-274.5-153.7z m0 0" fill="#3C80F7" p-id="1246"></path><path d="M494.4 769.2c-27.8 0-56 4.2-83.3 11.1 0 0.5 30.6 42.6 83.3 42.6 49.1 0 81.5-36.1 86.6-41.7-28.7-7.4-57.9-12-86.6-12z m0 0" fill="#1C569B" p-id="1247"></path><path d="M437 774.3s16.7 24.5 56.5 24.5 56.5-24.5 56.5-24.5-58.8-22.7-113 0z m0 0" fill="#FDCC9B" p-id="1248"></path><path d="M246.7 282.2c12-134.3 129.6-192.6 246.8-192.6 117.1 0 234.7 58.3 246.8 192.6 12.5 134.3-23.6 204.6-44 191.7-19.9-13 9.7-151.9-53.2-141.2-98.6 17.6-264.8-58.8-264.8-58.8s0.5 45.8-38.4 68.5c-75.9 44.4-23.6 112.5-44 125.5-20 12.9-61.7-51.5-49.2-185.7z m0 0" fill="#342620" p-id="1249"></path><path d="M604.1 788.7L499 922.9h63l91.2-114.4c-14.8-7.8-49.1-19.8-49.1-19.8z m0 0" fill="#5A545B" p-id="1250"></path><path d="M586.1 883.6L557.4 860c-3.2-2.8-4.2-7.9-1.4-11.6l10.6-14.8c2.8-3.7 7.4-4.2 10.6-1.4l28.7 23.6c3.2 2.8 4.2 7.9 1.4 11.6l-10.6 14.8c-2.8 3.2-7.4 4.1-10.6 1.4z m0 0" fill="#CECEDB" p-id="1251"></path><path d="M591.2 887.3c-2.3 0-4.6-0.5-6.5-2.3L556 861.3c-4.2-3.7-5.1-10.2-1.9-14.4l10.6-14.8c1.4-2.3 3.7-3.7 6.5-4.2s5.1 0.5 7.4 2.3l28.7 23.6c4.2 3.7 5.1 10.2 1.9 14.3l-10.6 14.8c-1.4 2.3-3.7 3.7-6.5 4.2h-0.9z m-4.2-5.6c1.4 0.9 2.8 1.4 4.2 1.4 1.4 0 2.8-0.9 3.7-2.3l10.6-14.8c1.9-2.8 1.4-6.9-0.9-8.8l-28.7-23.6c-1.4-0.9-2.8-1.4-4.2-1.4-1.4 0-2.8 0.9-3.7 2.3l-10.6 14.8c-1.9 2.8-1.4 6.9 0.9 8.8l28.7 23.6z m0 0" fill="#37354C" p-id="1252"></path><path d="M577.7 895.1L549 871.5c-3.2-2.8-4.2-7.9-1.4-11.6l6.9-9.3c1.4-1.9 3.7-2.3 5.6-0.9l34.7 28.7c1.9 1.4 1.9 4.2 0.9 6l-6.9 9.3c-3.2 3.3-7.8 4.2-11.1 1.4z m0 0" fill="#CECEDB" p-id="1253"></path><path d="M582.8 898.8c-2.3 0-4.6-0.5-6.5-2.3l-28.7-23.6c-4.2-3.7-5.1-10.2-1.9-14.4l6.9-9.3c0.9-1.4 2.3-2.3 4.2-2.3 1.4 0 3.2 0.5 4.6 1.4l34.7 28.7c2.3 1.9 2.8 6 0.9 8.8l-6.5 9.3c-1.4 2.3-3.7 3.7-6.5 4.2-0.7-0.5-1.2-0.5-1.2-0.5z m-4.1-5.5c1.4 0.9 2.8 1.4 4.2 1.4 1.4 0 2.8-0.9 3.7-2.3l6.9-9.3c0.5-0.9 0.5-2.3-0.5-3.2l-34.7-28.7c-0.5-0.5-0.9-0.5-1.4-0.5s-0.9 0.5-0.9 0.9l-6.5 9.3c-1.9 2.8-1.4 6.9 0.9 8.8l28.3 23.6z m0 0" fill="#37354C" p-id="1254"></path><path d="M550 705.3c-24.5 0-23.6-19.4-56-19.4s-31.5 19.4-56 19.4c-56.5 0-119.9-63.4-111.6-49.5 11.6 19 50.5 87 168.1 87s156.5-68.1 168.1-87c7.3-13.9-56.6 49.5-112.6 49.5z m0 0" fill="#5B504D" p-id="1255"></path></svg>