<?xml version="1.0" standalone="no"?><!DOCTYPE svg PUBLIC "-//W3C//DTD SVG 1.1//EN" "http://www.w3.org/Graphics/SVG/1.1/DTD/svg11.dtd"><svg t="1569745517082" class="icon" viewBox="0 0 1039 1024" version="1.1" xmlns="http://www.w3.org/2000/svg" p-id="1366" xmlns:xlink="http://www.w3.org/1999/xlink" width="202.9296875" height="200"><defs><style type="text/css"></style></defs><path d="M0 512C0 795.28934 233.908629 1024 519.796954 1024s519.796954-228.71066 519.796955-512S805.685279 0 519.796954 0 0 228.71066 0 512z" fill="#F9E9E6" p-id="1367"></path><path d="M844.670051 886.253807c-46.781726-28.588832-207.918782-23.390863-223.512691-70.172589-5.19797-12.994924-5.19797-31.187817-5.197969-49.38071 0-41.583756 5.19797-85.766497 5.197969-85.766498l-101.360406-31.187817-101.360406 31.187817s7.796954 44.182741 5.19797 85.766498c0 18.192893-2.598985 33.786802-5.19797 46.781726-15.593909 46.781726-176.730964 41.583756-223.51269 70.172588-5.19797 2.598985-10.395939 7.796954-12.994924 12.994924 90.964467 77.969543 207.918782 124.751269 337.86802 124.751269s246.903553-46.781726 337.868021-124.751269c-2.598985-2.598985-7.796954-7.796954-12.994924-10.395939z" fill="#FCCCA7" p-id="1368"></path><path d="M517.19797 686.13198L415.837563 717.319797s10.136041 51.979695 7.60463 93.563452c17.735472 20.791878 61.013766 8.436305 93.755777 0 32.747208-8.436305 83.624934-53.679431 101.360406-74.47131 2.084386-25.745543 2.084386-21.763898 2.084385-21.763898L517.19797 686.13198z" fill="#EFAD7D" p-id="1369"></path><path d="M524.994924 1021.401015h-5.19797 5.19797z m-109.157361-207.918781c-15.593909 46.781726-179.329949 41.583756-226.111675 70.172588-5.19797 2.598985-7.796954 7.796954-12.994924 12.994924 90.964467 77.969543 210.517766 124.751269 340.467006 124.751269l-38.984772-140.345177c-46.781726 0-59.77665-72.771574-62.375635-67.573604z m434.030457 72.771573c-46.781726-28.588832-207.918782-20.791878-223.51269-67.573604-2.598985-7.796954-15.593909 62.375635-67.573604 62.375635l-38.984772 140.345177c129.949239 0 249.502538-46.781726 343.06599-127.350254-5.19797-2.598985-7.796954-5.19797-12.994924-7.796954z" fill="#664960" p-id="1370"></path><path d="M512 644.932873c119.137462 0 215.715736-18.681503 215.715736-182.313584 0-163.632081-96.578274-296.284264-215.715736-296.284264S296.284264 298.987208 296.284264 462.619289s96.578274 182.313584 215.715736 182.313584z" fill="#FFDABE" p-id="1371"></path><path d="M761.346599 965.309726c-65.234518 33.838782-138.57267 54.401949-216.240731 58.092508-3.056406-14.860995-4.969259-30.371736-4.969259-45.846092 0-70.068629 106.599959-158.922721 117.682031-206.572507 7.391513-31.764792 7.391513-63.529584 0-95.294376l42.514192-82.876427c22.673543-71.232975 31.286579-112.374904 25.839107-123.41539-5.442274-11.045685-31.239797-30.091046-77.376975-57.130884 4.142782 1.678944 3.45665-11.59667-2.058395-39.83204-5.520244-28.235371-8.275168-28.235371-8.275168 0v36.905584l-30.616041-16.394396c3.81531-18.177299 3.81531-39.130315 0-62.859046-3.820508-23.728731-8.706599-23.728731-14.658274 0l-6.923695 62.859046c-65.45803-10.926132-122.043127-8.47269-169.755289 7.37072-1.377462-28.744772-5.114802-40.289462-11.201625-34.639269-6.637807 16.02534-1.949239 31.676426 0 43.662945-35.959553 10.24-68.124589 30.262579-96.489908 60.05734l23.733928 103.642314 26.457665 73.327757c70.427289 72.891127 67.396873 72.891127-9.080852 0-57.36999-54.677442-99.166863-119.42335-114.719188-191.597158-15.541929-72.147817 3.409868-173.36268 46.579005-246.212223 57.567513-97.150051 136.036061-128.530193 235.410843-94.135228 68.436467-28.97868 131.78932-17.038944 190.058558 35.819208 87.403858 79.289827 113.575635 242.703594 93.230782 319.15533-13.561503 50.960893-44.640162 102.623513-93.230782 154.987857 123.472569 130.614579 163.772426 221.79736 120.899574 273.553544-29.072244 27.278944-50.716589 49.193584-66.814701 67.365685z" fill="#2B201A" p-id="1372"></path><path d="M668.599228 649.746193c22.647553-3.628183 44.796102 2.884873 66.430051 19.544365 32.46132 24.98664 31.759594 37.363005 53.747005 64.444427 14.663472 18.052548 32.814782 22.975025 54.453929 14.762233l-15.204061-14.762233c-46.786924-26.868305-70.572832-48.346315-71.352528-64.444427-0.779695-16.098112-20.620345-29.540061-59.511553-40.336243l-28.562843 20.791878z" fill="#FF7C6F" p-id="1373"></path><path d="M659.242883 636.855228c31.115046-32.809584 59.937787-50.846538 86.473422-54.105665 39.800853-4.886091 28.121015 30.512081 16.69068 36.676874-7.620223 4.106396-45.41466 17.751066-113.388508 40.923614l10.224406-23.494823z" fill="#FF7C6F" p-id="1374"></path><path d="M668.599228 649.746193c26.374497-19.622335 38.376609-30.943513 63.243696-39.073137 33.480122-10.952122 33.215025 6.720975 22.735919 11.118457-6.986071 2.926457-43.839675 18.525563-107.98262 38.225868l22.003005-10.271188z" fill="#CF2E59" p-id="1375"></path><path d="M512 779.695431c96.266396 0 197.216162-119.329787 215.715736-307.854944C642.068792 412.739574 628.975107 387.248731 509.837645 387.248731c-119.137462 0-114.708792 37.960772-200.522071 84.591756C326.640406 647.136812 415.733604 779.695431 512 779.695431z" fill="#FFDABE" p-id="1376"></path><path d="M519.796954 387.311107c109.983838 1.424244 124.720081 27.112609 207.918782 84.52938-18.000569 183.436345-114.064244 301.367878-207.918782 307.595046V387.311107z" fill="#FCD3B2" p-id="1377"></path><path d="M412.443289 439.831391c35.569706 1.398254 66.783513 30.584853 66.783513 30.584853s-44.182741-18.192893-75.370558-15.593909c-25.989848 2.598985-64.974619 18.192893-57.177665 10.395939 7.796954-12.994924 30.200203-26.779939 65.76471-25.386883zM625.560041 439.831391c-35.569706 1.398254-66.778315 30.584853-66.778315 30.584853s44.182741-18.192893 75.370558-15.593909c25.989848 2.598985 64.974619 18.192893 57.177665 10.395939-7.796954-12.994924-30.200203-26.779939-65.769908-25.386883z" fill="#3B2314" p-id="1378"></path><path d="M519.796954 649.746193h-38.984771l-31.187818-2.598985v2.598985l36.385787 28.588832 72.771574 5.19797 33.786802-33.786802-25.989848-2.598985z" fill="#FFFFFF" p-id="1379"></path><path d="M522.395939 671.707614c-41.583756 0-77.969543-32.773198-77.969543-32.773198l-7.796954-2.183147s33.786802 56.980142 85.766497 54.791797c59.77665 0 85.766497-54.791797 85.766498-54.791797l-7.796955 2.183147c-2.598985 0-33.786802 32.773198-77.969543 32.773198z" fill="#851E19" p-id="1380"></path><path d="M522.395939 678.335025c-41.583756 0-77.969543-38.984772-77.969543-38.984771l-7.796954-2.598985s33.786802 67.781523 85.766497 65.182538c59.77665 0 85.766497-65.182538 85.766498-65.182538l-7.796955 2.598985c-2.598985 0-33.786802 38.984772-77.969543 38.984771z" fill="#FF7C6F" p-id="1381"></path><path d="M522.395939 644.548223c-5.19797 0-10.395939-5.19797-20.791878-5.197969-15.593909 0-63.18132-3.186355-63.18132 0s19.128528 17.777056 84.103147 17.777056c72.771574 0 85.27269-21.051777 85.272691-21.051777s-49.910904 0.675736-62.905828 3.274721c-12.994924 0-14.699858 5.19797-22.496812 5.197969z" fill="#FF7C6E" p-id="1382"></path><path d="M313.26603 416.393746l11.633056 146.619127c-7.199188 2.650964-12.56869 1.803695-16.108507-2.552203-14.725848-18.12532-25.402477-52.884142-27.434884-69.65799-3.950457-51.241584 6.684589-76.046294 31.915533-74.408934z" fill="#FFDABE" p-id="1383"></path><path d="M313.562315 435.345543l5.873705 101.661888c-4.574213 1.918051-7.963289 1.377462-10.156832-1.61137-9.127635-12.428345-15.526335-36.45336-16.643899-48.07602-1.980426-35.528122 4.990051-52.852954 20.927026-51.974498z" fill="#EFAD7D" p-id="1384"></path><path d="M311.878173 550.984772m-10.395939 0a10.395939 10.395939 0 1 0 20.791878 0 10.395939 10.395939 0 1 0-20.791878 0Z" fill="#408799" p-id="1385"></path><path d="M728.839993 416.207595l-16.742904 146.123823c7.102285 2.900598 12.498086 2.241238 16.187766-1.988469 15.349442-17.600354 27.232633-51.965393 29.849199-68.658093 5.736356-51.0725-4.026539-76.233258-29.299256-75.477442z" fill="#FFDABE" p-id="1386"></path><path d="M727.882481 435.137507l-9.418077 101.394969c4.504488 2.07652 7.910366 1.654538 10.206882-1.25592 9.555817-12.102224 16.789081-35.889293 18.311588-47.46587 3.219134-35.437363-3.142469-52.994908-19.100393-52.673179z" fill="#EFAD7D" p-id="1387"></path><path d="M728.073832 551.342812m10.389606 0.362813a10.395939 10.395939 0 1 1-20.779213-0.725626 10.395939 10.395939 0 1 1 20.779213 0.725626Z" fill="#408799" p-id="1388"></path><path d="M365.765523 512.940832s32.970721 30.683614 53.980914 30.683615 42.217909-22.626761 53.824974-22.626762C471.559797 509.089137 446.458802 482.257218 417.360569 482.257218S365.765523 512.940832 365.765523 512.940832z" fill="#FFFFFF" p-id="1389"></path><path d="M421.035533 514.598985m-25.989848 0a25.989848 25.989848 0 1 0 51.979696 0 25.989848 25.989848 0 1 0-51.979696 0Z" fill="#408799" p-id="1390"></path><path d="M421.035533 514.598985m-18.192893 0a18.192893 18.192893 0 1 0 36.385786 0 18.192893 18.192893 0 1 0-36.385786 0Z" fill="#000101" p-id="1391"></path><path d="M363.088569 514.780914C384.275492 508.434193 403.138924 503.745624 419.668467 500.720406c24.799513-4.532629 40.263472 12.220426 53.902944 20.277279C471.559797 509.089137 446.458802 482.257218 417.360569 482.257218 397.961746 482.257218 379.872812 493.100183 363.088569 514.780914z" fill="#7B6358" p-id="1392"></path><path d="M361.290071 515.799716c22.288893-8.077645 41.744893-12.111269 58.378396-12.111269 24.950254 0 37.373401 8.337543 53.902944 17.309238-2.011614-7.11602-27.112609-28.344528-56.210842-28.344528-19.398822 0-38.085523 7.718985-56.070498 23.146559z" fill="#0C0D0B" p-id="1393"></path><path d="MNaN NaNsNaN NaN NaN NaN NaN NaN NaN NaNCNaN NaN NaN NaN NaN NaNSNaN NaN NaN NaNz" fill="#FFFFFF" p-id="1394"></path><path d="MNaN NaNmNaN NaNaNaN NaN NaN 1 0 NaN NaN NaN NaN NaN 1 0 NaN NaNZ" fill="#408799" p-id="1395"></path><path d="MNaN NaNmNaN NaNaNaN NaN NaN 1 0 NaN NaN NaN NaN NaN 1 0 NaN NaNZ" fill="#000101" p-id="1396"></path><path d="MNaN NaNCNaN NaN NaN NaN NaN NaNcNaN NaN NaN NaN NaN NaNCNaN NaN NaN NaN NaN NaN NaN NaN NaN NaN NaN NaNz" fill="#7B6358" p-id="1397"></path><path d="MNaN NaNcNaN NaN NaN NaN NaN NaN NaN NaN NaN NaN NaN NaN NaN NaN NaN NaN NaN NaN NaN NaN NaN NaN NaN NaNz" fill="#0C0D0B" p-id="1398"></path></svg>