<?xml version="1.0" standalone="no"?><!DOCTYPE svg PUBLIC "-//W3C//DTD SVG 1.1//EN" "http://www.w3.org/Graphics/SVG/1.1/DTD/svg11.dtd"><svg t="1569027445302" class="icon" viewBox="0 0 1024 1024" version="1.1" xmlns="http://www.w3.org/2000/svg" p-id="8295" xmlns:xlink="http://www.w3.org/1999/xlink" width="200" height="200"><defs><style type="text/css"></style></defs><path d="M202.24 490.496c7.68 8.704 18.432 27.136 30.72 47.616 29.184 49.664 9.216 57.344 59.904 100.864s152.576 35.84 152.576 35.84l40.96 46.592h53.76l31.232-46.592s98.304 10.752 156.672-35.84c58.368-46.592 26.624-45.568 69.632-111.616 19.456-29.696 25.6-26.112 30.208-58.368 1.024-6.144 11.264-23.04 10.24-31.744-16.896-148.48-219.648-291.328-219.648-291.328L242.176 270.336 189.952 395.776s-13.824 64.512 12.288 94.72z" fill="#FFE2C2" p-id="8296"></path><path d="M321.536 754.176c-38.4 72.704-13.312 181.76-13.312 181.76s9.728 37.888 111.616 58.368c14.848 3.072 104.448 10.24 168.448 0 109.056-17.408 126.976-41.984 126.976-41.984s18.432-143.36-16.896-207.872-132.608-64.512-132.608-64.512l-55.296 30.208-59.904-28.16c-0.512 0-90.624-1.024-129.024 72.192z" fill="#5FBDFB" p-id="8297"></path><path d="M517.12 225.28c-8.192 0-18.432 45.568-55.808 86.016-37.888 40.448-37.888 40.448-68.608 51.2-30.72 10.752-89.6-6.656-145.92 18.944S186.368 469.504 186.368 469.504 167.424 308.224 205.824 225.28s118.784-127.488 218.112-150.016 222.72-25.6 347.648 96.256 62.976 286.72 62.976 286.72l-62.976-88.064s-100.864 23.552-173.056-17.92C550.912 324.096 524.8 225.28 517.12 225.28z" fill="#1E1E1E" p-id="8298"></path></svg>