<?xml version="1.0" standalone="no"?><!DOCTYPE svg PUBLIC "-//W3C//DTD SVG 1.1//EN" "http://www.w3.org/Graphics/SVG/1.1/DTD/svg11.dtd"><svg t="1568910152763" class="icon" viewBox="0 0 1025 1024" version="1.1" xmlns="http://www.w3.org/2000/svg" p-id="2263" xmlns:xlink="http://www.w3.org/1999/xlink" width="200.1953125" height="200"><defs><style type="text/css"></style></defs><path d="M998.420186 0C996.759006 0 995.184115 0.302033 993.695526 0.949247L5.184412 439.99747C-7.328387 445.541935 4.60192 469.790878 21.9041 473.95462L430.231245 572.460548C439.70214 574.747371 449.237756 584.282987 451.54615 593.775454L550.030511 1002.102601C553.007693 1014.399663 566.124557 1024 575.46601 1024 579.241421 1024 582.41277 1022.403541 584.009229 1018.800717L1023.035883 30.311177C1028.213589 18.661329 1011.42918 0 998.420186 0M961.550575 62.434552 576.760435 928.838007 493.485602 583.635772C487.38022 558.437585 465.547541 536.604911 440.327782 530.499524L95.168695 447.246268 961.550575 62.434552" p-id="2264"></path></svg>