<?xml version="1.0" standalone="no"?><!DOCTYPE svg PUBLIC "-//W3C//DTD SVG 1.1//EN" "http://www.w3.org/Graphics/SVG/1.1/DTD/svg11.dtd"><svg t="1569120370662" class="icon" viewBox="0 0 1024 1024" version="1.1" xmlns="http://www.w3.org/2000/svg" p-id="4746" xmlns:xlink="http://www.w3.org/1999/xlink" width="200" height="200"><defs><style type="text/css"></style></defs><path d="M512 131.552L131.552 532.16l17.6 36.928L512 188.64l362.656 380.384 17.792-37.088L512 131.552z m242.368 380.256c-17.28 0-17.568 19.168-17.568 19.168v306.784c0 9.728-5.6 16.608-15.264 16.608h-107.872c-8.768 0-15.2-6.688-15.2-16.032l-0.032-203.872c0-15.328-10.624-27.36-24.832-27.36l-123.008 0.032c-17.92 0-24.896 12.192-24.896 27.52v202.432c0.064 17.696-14.752 17.312-14.752 17.312H302.336c-14.816 0-14.944-16.48-14.944-16.48v-307.072s-0.32-19.04-17.312-19.04-17.28 19.456-17.28 19.456l-0.224 319.616c0 26.528 13.504 41.568 39.264 41.568h129.664c26.144 0 38.592-14.592 38.592-42.304l0.032-185.504c0-13.024 6.24-19.488 17.376-19.488h69.28c13.088 0 17.28 9.472 17.28 19.072l-0.192 185.44c0 27.904 13.536 42.752 39.104 42.752h129.44c25.856 0 39.008-14.912 39.008-42.368v-319.04s0.224-19.2-17.056-19.2z" p-id="4747"></path></svg>