<?xml version="1.0" standalone="no"?><!DOCTYPE svg PUBLIC "-//W3C//DTD SVG 1.1//EN" "http://www.w3.org/Graphics/SVG/1.1/DTD/svg11.dtd"><svg t="1569105564140" class="icon" viewBox="0 0 1024 1024" version="1.1" xmlns="http://www.w3.org/2000/svg" p-id="9116" xmlns:xlink="http://www.w3.org/1999/xlink" width="200" height="200"><defs><style type="text/css"></style></defs><path d="M606.12608 301.94688c4.01408-4.00384 10.48576-4.00384 14.47936 0l0 0c4.01408 3.9936 4.01408 10.47552 0 14.47936L417.8944 519.168c-4.01408 3.9936-10.47552 3.9936-14.47936 0l0 0c-4.01408-3.9936-4.01408-10.47552 0-14.47936L606.12608 301.94688z" p-id="9117"></path><path d="M417.87392 504.832c-4.00384-4.00384-10.46528-4.00384-14.47936 0l0 0c-4.00384 3.9936-4.00384 10.47552 0 14.47936l202.74176 202.752c4.01408 4.00384 10.47552 4.00384 14.47936 0l0 0c4.01408-4.00384 4.01408-10.46528 0-14.47936L417.87392 504.832z" p-id="9118"></path></svg>