<?xml version="1.0" standalone="no"?><!DOCTYPE svg PUBLIC "-//W3C//DTD SVG 1.1//EN" "http://www.w3.org/Graphics/SVG/1.1/DTD/svg11.dtd"><svg t="1568997746199" class="icon" viewBox="0 0 1024 1024" version="1.1" xmlns="http://www.w3.org/2000/svg" p-id="4846" xmlns:xlink="http://www.w3.org/1999/xlink" width="200" height="200"><defs><style type="text/css"></style></defs><path d="M872.448 151.04c-99.84-85.504-219.648-128-359.936-128s-260.096 42.496-359.936 128C53.248 236.032 3.584 338.944 3.584 459.776c0 103.936 38.4 196.096 114.176 275.968 76.288 79.872 173.568 130.56 291.84 152.064l73.728 103.424c2.048 3.072 5.12 5.632 8.192 7.68 3.072 2.56 6.656 4.096 10.24 5.12 4.096 1.024 7.68 1.536 11.264 1.536 11.776 0.512 22.528-5.12 29.184-14.848l73.728-103.424c118.272-20.992 215.552-71.68 291.84-151.552 76.288-79.872 114.176-172.032 114.176-275.968 0-120.32-49.664-223.232-149.504-308.736zM309.76 510.976c-14.336 14.336-31.232 21.504-51.2 21.504s-37.376-7.168-51.712-21.504c-14.336-14.336-21.504-31.232-21.504-51.2-0.512-19.456 7.68-37.888 21.504-51.2 14.336-14.336 31.744-21.504 51.712-21.504s37.376 7.168 51.2 21.504c14.336 14.336 20.992 31.232 20.992 51.2 0 19.968-6.656 36.864-20.992 51.2z m254.976 0c-14.336 14.336-31.232 21.504-51.2 21.504-19.968 0-37.376-7.168-51.712-21.504s-21.504-31.232-21.504-51.2c0-19.456 7.68-37.888 21.504-51.2 14.336-14.336 31.232-21.504 51.2-21.504 7.68 0 15.36 1.536 22.528 3.584 7.168 2.048 14.336 5.632 20.48 10.24 6.144 4.608 11.264 9.728 15.872 15.872 4.608 6.144 8.192 13.312 10.24 20.48 2.56 7.168 3.584 14.848 3.584 22.528 0 18.944-7.168 37.888-20.992 51.2z m254.464 0c-13.824 14.336-31.232 21.504-51.712 21.504-5.12 0-10.752-0.512-16.384-1.536-5.632-1.024-10.752-3.072-15.36-5.632-4.608-2.56-9.216-5.632-13.824-8.704-4.608-2.56-8.192-6.656-11.264-11.264-3.072-4.608-6.144-9.216-8.704-13.824-2.56-4.608-4.608-9.728-5.632-15.36s-1.536-10.752-1.536-16.384c-0.512-19.456 7.68-37.888 21.504-51.2 14.336-14.336 31.232-21.504 51.2-21.504 7.68 0 15.36 1.536 22.528 3.584 7.168 2.048 14.336 5.632 20.48 10.24 6.144 4.608 11.264 9.728 15.872 15.872 4.608 6.144 8.192 13.312 10.24 20.48 2.56 7.168 3.584 14.848 3.584 22.528 0 19.968-7.168 36.864-20.992 51.2z" fill="#FFAA39" p-id="4847"></path></svg>