<?xml version="1.0" standalone="no"?><!DOCTYPE svg PUBLIC "-//W3C//DTD SVG 1.1//EN" "http://www.w3.org/Graphics/SVG/1.1/DTD/svg11.dtd"><svg t="1568911054519" class="icon" viewBox="0 0 1189 1024" version="1.1" xmlns="http://www.w3.org/2000/svg" p-id="1096" xmlns:xlink="http://www.w3.org/1999/xlink" width="232.2265625" height="200"><defs><style type="text/css"></style></defs><path d="M594.580645 997.574194c-13.212903 0-29.729032-3.303226-42.941935-13.212904l-125.522581-102.4H148.645161c-72.670968 0-132.129032-59.458065-132.129032-132.129032V132.129032c0-72.670968 59.458065-132.129032 132.129032-132.129032h891.870968c72.670968 0 132.129032 59.458065 132.129032 132.129032v614.4c0 72.670968-59.458065 132.129032-132.129032 132.129033H759.741935l-125.52258 102.4c-9.909677 9.909677-26.425806 16.516129-39.63871 16.516129zM148.645161 49.548387C102.4 49.548387 66.064516 85.883871 66.064516 132.129032v614.4c0 46.245161 36.335484 82.580645 82.580645 82.580645h297.290323l138.735484 112.309678c6.606452 3.303226 13.212903 3.303226 19.819355 0l138.735483-112.309678h297.290323c46.245161 0 82.580645-36.335484 82.580645-82.580645V132.129032c0-46.245161-36.335484-82.580645-82.580645-82.580645h-891.870968z" fill="#333333" p-id="1097"></path><path d="M254.348387 290.683871h558.245161c16.516129 0 29.729032 13.212903 29.729033 29.729032s-13.212903 29.729032-29.729033 29.729032H254.348387c-16.516129 0-29.729032-13.212903-29.729032-29.729032-3.303226-16.516129 13.212903-29.729032 29.729032-29.729032zM254.348387 495.483871h680.464516c16.516129 0 29.729032 13.212903 29.729032 29.729032s-13.212903 29.729032-29.729032 29.729032H254.348387c-16.516129 0-29.729032-13.212903-29.729032-29.729032-3.303226-16.516129 13.212903-29.729032 29.729032-29.729032z" fill="#333333" p-id="1098"></path></svg>