<?xml version="1.0" standalone="no"?><!DOCTYPE svg PUBLIC "-//W3C//DTD SVG 1.1//EN" "http://www.w3.org/Graphics/SVG/1.1/DTD/svg11.dtd"><svg t="1568997725010" class="icon" viewBox="0 0 1024 1024" version="1.1" xmlns="http://www.w3.org/2000/svg" p-id="3448" xmlns:xlink="http://www.w3.org/1999/xlink" width="200" height="200"><defs><style type="text/css"></style></defs><path d="M1022.4 220c0-33.6-12.8-62.4-37.6-85.6-38.4-35.2-76.8-69.6-115.2-104.8-22.4-20-48.8-29.6-78.4-29.6h-502.4c-64.8 0-114.4 50.4-114.4 115.2v785.6c0 8 0.8 15.2 2.4 23.2 1.6 5.6 0 7.2-5.6 7.2h-64.8c-15.2 0-19.2-4-19.2-19.2v-694.4-8c-0.8-24.8-24-44.8-48.8-40.8-23.2 3.2-37.6 20.8-37.6 44.8V915.2c0 60.8 43.2 104 104 104 224-0.8 448 2.4 672.8-1.6 44-0.8 87.2 0 131.2 0 64.8 0 114.4-49.6 114.4-114.4-0.8-228-0.8-456-0.8-683.2z m-663.2 21.6c6.4-8 14.4-12 24-12.8h264.8c20 0 33.6 8.8 37.6 24 3.2 10.4 3.2 21.6 0 32-4 14.4-16.8 24-32 24.8-21.6 0.8-44 0-65.6 0h-196.8c-12.8 0-23.2-3.2-31.2-13.6-11.2-13.6-11.2-40-0.8-54.4z m-4 232.8c6.4-15.2 20-20.8 36-20.8h366.4c26.4 0 40 13.6 40 40 0 5.6 0 11.2-1.6 16.8-4 13.6-16 23.2-31.2 24.8H392c-12.8 0-24-2.4-32-12.8-11.2-15.2-10.4-32-4.8-48z m439.2 264c-5.6 16-19.2 21.6-36 21.6h-368c-24.8 0-39.2-14.4-39.2-39.2 0-5.6 0-12 1.6-17.6 4.8-13.6 16-23.2 31.2-24 8.8-0.8 17.6 0 27.2 0h346.4c12 0 23.2 2.4 30.4 12 12.8 13.6 12 30.4 6.4 47.2z" fill="#1F9FEB" p-id="3449"></path></svg>