<?xml version="1.0" standalone="no"?><!DOCTYPE svg PUBLIC "-//W3C//DTD SVG 1.1//EN" "http://www.w3.org/Graphics/SVG/1.1/DTD/svg11.dtd"><svg t="1568910404591" class="icon" viewBox="0 0 1024 1024" version="1.1" xmlns="http://www.w3.org/2000/svg" p-id="4883" xmlns:xlink="http://www.w3.org/1999/xlink" width="200" height="200"><defs><style type="text/css"></style></defs><path d="M757.76 102.4c90.112 0 163.84 73.728 163.84 163.84v491.52c0 90.112-73.728 163.84-163.84 163.84H266.24c-90.112 0-163.84-73.728-163.84-163.84V266.24c0-90.112 73.728-163.84 163.84-163.84h491.52m0-40.96H266.24C153.6 61.44 61.44 153.6 61.44 266.24v491.52c0 112.64 92.16 204.8 204.8 204.8h491.52c112.64 0 204.8-92.16 204.8-204.8V266.24c0-112.64-92.16-204.8-204.8-204.8z" fill="" p-id="4884"></path><path d="M491.52 266.24h40.96v450.56h-40.96z" fill="" p-id="4885"></path><path d="M286.72 471.04h450.56v40.96H286.72z" fill="" p-id="4886"></path></svg>