<?xml version="1.0" standalone="no"?><!DOCTYPE svg PUBLIC "-//W3C//DTD SVG 1.1//EN" "http://www.w3.org/Graphics/SVG/1.1/DTD/svg11.dtd"><svg t="1568923579109" class="icon" viewBox="0 0 1024 1024" version="1.1" xmlns="http://www.w3.org/2000/svg" p-id="3302" xmlns:xlink="http://www.w3.org/1999/xlink" width="200" height="200"><defs><style type="text/css"></style></defs><path d="M65.379025 590.868687c21.074747 32.840404 57.018182 51.329293 94.254546 52.363636 1.551515 0.129293 3.10303 0.258586 4.654545 0.258586l215.660606 0.258586c-14.610101 40.339394-22.49697 83.652525-22.496969 128.775758 0 29.220202 3.361616 57.793939 9.696969 85.20404l0.517172-0.129293c11.507071 48.09697 56.242424 83.911111 109.511111 83.911111 62.060606 0 112.355556-48.614141 112.355556-108.476768 0-3.620202-0.129293-7.240404-0.517172-10.731313 3.749495-114.682828 97.228283-207.515152 214.884849-215.660606v-0.646464l128.129293-0.258586c1.551515 0.129293 3.232323 0.258586 4.913131 0.258586 21.333333 0 38.658586-16.678788 38.658586-37.236364l0.387878-447.482828c0-20.557576-17.325253-37.236364-38.658585-37.236364-2.19798 0-4.266667 0.129293-6.335354 0.517172H788.902258c-1.939394-0.258586-4.008081-0.517172-6.076768-0.517172s-4.008081 0.129293-6.076768 0.387879L240.570945 84.040404c-21.074747 0-42.278788 5.559596-61.284849 17.19596-18.359596 11.248485-32.323232 26.763636-41.244444 44.347474-2.19798 3.232323-3.878788 6.852525-5.042425 10.860606l-83.523232 355.555556c-1.163636 4.008081-1.422222 8.145455-1.163636 12.024242-1.680808 22.626263 3.620202 46.028283 17.066666 66.844445z m832.775758-59.474748l-77.187879 0.129293 0.258586-372.492929h77.317172l-0.387879 372.363636zM126.405288 521.826263l80.420202-342.238384c2.715152-6.335354 7.49899-12.024242 13.963636-15.903031 4.525253-2.715152 9.438384-4.39596 14.351516-5.042424 1.680808 0.258586 3.361616 0.387879 5.171717 0.387879l503.595959 0.258586-0.258585 381.543434c-102.141414 25.082828-183.983838 99.426263-216.565657 195.232323h-0.129293c-3.232323 9.438384-6.852525 21.462626-9.438384 34.262627-6.076768 30.125253-5.430303 59.216162-5.430303 59.216161h-0.517172c0 0.775758 0.129293 1.551515 0.129293 2.327273 0 19.264646-16.161616 34.909091-36.072727 34.909091-19.911111 0-36.072727-15.644444-36.072727-34.909091v-1.680808h-0.258586s-5.818182-27.927273-5.818182-58.569697c0-38.658586 5.042424-58.69899 5.042424-58.69899h0.387879c6.335354-31.935354 17.583838-62.060606 33.09899-89.858586l-0.387879-0.258586c2.585859-5.042424 4.008081-10.60202 4.008081-16.549495 0-20.557576-17.325253-37.236364-38.658586-37.236363L164.417409 568.888889h-0.129293c-13.187879 0.646465-26.246465-5.430303-33.745454-16.937374-5.947475-9.309091-6.981818-20.29899-3.749495-29.866667l-0.387879-0.258585z" fill="" p-id="3303"></path></svg>