<?xml version="1.0" standalone="no"?><!DOCTYPE svg PUBLIC "-//W3C//DTD SVG 1.1//EN" "http://www.w3.org/Graphics/SVG/1.1/DTD/svg11.dtd"><svg t="1568989469329" class="icon" viewBox="0 0 1024 1024" version="1.1" xmlns="http://www.w3.org/2000/svg" p-id="2700" xmlns:xlink="http://www.w3.org/1999/xlink" width="200" height="200"><defs><style type="text/css"></style></defs><path d="M512 48.761905C256 48.761905 48.761905 256 48.761905 512s207.238095 463.238095 463.238095 463.238095 463.238095-207.238095 463.238095-463.238095S768 48.761905 512 48.761905zM195.047619 414.47619c107.27619 0 195.047619-87.771429 195.047619-195.047619l48.761905 0c0 134.095238-109.714286 243.809524-243.809524 243.809524L195.047619 414.47619zM699.733333 609.52381l-104.838095 195.047619c-34.133333 65.828571-124.342857 65.828571-158.47619 0l-104.838095-195.047619c-17.066667-31.695238 4.87619-73.142857 39.009524-73.142857l290.133333 0C697.295238 536.380952 719.238095 577.828571 699.733333 609.52381zM828.952381 463.238095c-134.095238 0-243.809524-109.714286-243.809524-243.809524l48.761905 0c0 107.27619 87.771429 195.047619 195.047619 195.047619L828.952381 463.238095z" p-id="2701"></path></svg>